<?xml version="1.0" encoding="UTF-8"?><svg id="Layer_1" xmlns="http://www.w3.org/2000/svg" width="564.71" height="365.02" viewBox="0 0 564.71 365.02"><defs><style>.cls-1{stroke:#000;stroke-miterlimit:10;stroke-width:2.5px;}</style></defs><path class="cls-1" d="M60.55,88.68c-.22,0-.4.18-.4.4v29.66c0,4.23.57,7.29,1.72,9.19,1.14,1.89,3.15,3.17,6.01,3.84,2.8.65,7.32,1.1,13.56,1.32.22,0,.39.18.39.4v2.53c0,.23-.18.41-.41.4-7.42-.32-17.8-.48-31.15-.48-12.03,0-21.05.16-27.06.48-.23.01-.41-.17-.41-.4v-2.53c0-.21.17-.39.39-.4,4.95-.23,8.58-.67,10.88-1.32,2.36-.67,3.97-1.95,4.83-3.84.86-1.89,1.29-4.95,1.29-9.19V35.91c0-4.23-.43-7.29-1.29-9.18-.86-1.89-2.47-3.17-4.83-3.84-2.3-.65-5.93-1.09-10.88-1.32-.21,0-.39-.19-.39-.4v-2.53c0-.23.19-.41.42-.4,5.99.32,14.58.48,25.77.48l23.19-.17c2.72-.11,5.8-.17,9.23-.17,16.74,0,29.55,2.98,38.43,8.93,8.87,5.96,13.31,13.94,13.31,23.96,0,6.12-1.75,12-5.26,17.62-3.51,5.62-9.45,10.33-17.82,14.11-8.37,3.79-19.5,5.68-33.38,5.68h-16.13ZM66.05,22.72c-2.22.78-3.76,2.17-4.62,4.18-.86,2-1.29,5.01-1.29,9.02v49.03c0,.22.18.4.4.4h13.98c14.02,0,23.72-2.92,29.09-8.77,5.37-5.84,8.05-13.67,8.05-23.46,0-10.8-2.76-18.76-8.27-23.88-5.51-5.12-14.63-7.68-27.37-7.68-4.44,0-7.77.39-9.98,1.17Z"/><path class="cls-1" d="M409.11,19.29l.07,2.6c0,.3-.23.55-.53.56-2.82.11-5.68.48-7.46.99-3.42.97-4,3-5,6-.13.39-6,15-7,17,0,0-5.02,12-20.73,42.29,0,0-.02.04-.04.09-.02.05-.03.11-.03.17v30.26c0,4.23.34,7.29,1.03,9.19.69,1.89,1.97,3.17,3.86,3.84,1.81.64,4.64,1.07,8.49,1.31.29.02.53.26.53.55v2.23c0,.32-.26.57-.58.55-5.22-.31-12.29-.47-21.23-.47-9.46,0-16.59.15-21.4.46-.32.02-.58-.23-.58-.55v-2.23c0-.29.24-.53.53-.55,3.85-.23,6.68-.67,8.49-1.31,1.89-.67,3.18-1.95,3.86-3.84.69-1.89,1.03-4.95,1.03-9.19v-24.91l-.07-.27-34.79-62.5c-2.06-3.67-3.86-6.15-5.41-7.43-1.62-1.34-3.21-1.98-4.76-1.92-.23,0-.43-.16-.43-.39v-2.89c0-.15.12-.27.27-.26,4.55.35,9.71.53,15.48.53,10.68,0,18.5-.15,23.46-.46.32-.02.58.23.58.55v2.37c0,.3-.25.55-.55.55-7.65.1-11.47,2.21-11.47,6.34,0,1.67.57,3.62,1.72,5.84l28.01,52.35c.21.39.77.39.98,0l20.5-41.49c2.25-4.82,5.53-11.22,6.25-14.82,1-5-1.23-6.5-3-7-2.65-.74-7.34-1.24-12.19-1.38-.3,0-.54-.25-.54-.55v-2.23c0-.32.26-.56.58-.55,6.34.31,12.73.47,19.17.47,4.87,0,8.97-.15,12.3-.45.32-.03.59.22.59.53Z"/><path class="cls-1" d="M100.65,212.54c7.71,4.79,13.7,11.72,17.96,20.79,4.26,9.08,6.39,19.9,6.39,32.48s-2.18,23.1-6.55,32.56c-4.37,9.46-10.46,16.81-18.29,22.04-7.82,5.23-16.7,7.85-26.62,7.85s-19.23-2.39-26.94-7.18c-7.71-4.79-13.7-11.72-17.96-20.79-4.26-9.07-6.39-19.9-6.39-32.48s2.18-23.1,6.55-32.56c4.37-9.46,10.46-16.81,18.29-22.04,7.82-5.23,16.69-7.85,26.62-7.85s19.23,2.4,26.94,7.18ZM54.86,215.8c-5.23,4.96-9.28,11.89-12.14,20.79-2.86,8.91-4.29,19.1-4.29,30.56s1.59,21.77,4.77,30.56c3.18,8.8,7.47,15.59,12.86,20.37,5.39,4.79,11.43,7.18,18.12,7.18s12.97-2.48,18.2-7.43c5.23-4.95,9.28-11.88,12.14-20.79,2.86-8.91,4.29-19.09,4.29-30.56s-1.59-21.76-4.77-30.56c-3.18-8.79-7.47-15.59-12.86-20.37-5.4-4.79-11.44-7.18-18.12-7.18s-12.97,2.48-18.2,7.43Z"/><path class="cls-1" d="M279.92,214.38c-2,.67-3.36,1.95-4.09,3.84-.73,1.89-1.09,4.96-1.09,9.18v82.83c0,4.23.36,7.29,1.09,9.19.73,1.89,2.09,3.17,4.09,3.84,1.94.65,4.99,1.09,9.16,1.32.21.01.38.19.38.4v2.54c0,.23-.19.41-.42.4-5.54-.32-13.09-.48-22.66-.48-10.14,0-17.75.16-22.84.47-.23.01-.42-.17-.42-.4v-2.54c0-.21.17-.39.38-.4,4.16-.23,7.22-.67,9.16-1.32,2-.67,3.36-1.95,4.09-3.84.73-1.89,1.09-4.95,1.09-9.19v-87.46c0-.44-.61-.56-.77-.15l-42.92,105.9c-.06.15-.21.25-.37.25h-2.37c-.16,0-.31-.1-.37-.24l-44.92-106.32c-.17-.4-.77-.28-.77.16v86.2c0,4.34.39,7.57,1.18,9.69.79,2.12,2.33,3.65,4.63,4.59,2.24.92,5.68,1.5,10.33,1.73.21.01.39.18.39.4v2.53c0,.23-.19.41-.42.4-4.33-.31-10.37-.47-18.11-.47-7.02,0-12.51.16-16.48.47-.23.02-.42-.16-.42-.4v-2.53c0-.21.17-.38.38-.4,4.05-.24,7.07-.81,9.07-1.73,2.06-.94,3.45-2.51,4.18-4.68.73-2.17,1.09-5.37,1.09-9.6v-81.16c0-4.23-.36-7.29-1.09-9.18-.73-1.89-2.09-3.17-4.09-3.84-1.94-.65-4.99-1.08-9.16-1.32-.21-.01-.38-.19-.38-.4v-2.53c0-.23.19-.42.42-.4,3.97.31,9.46.47,16.48.47,6.15,0,11.21-.16,15.16-.48.17-.01.33.09.39.25l39.49,95.52c.14.33.61.33.74,0l38.6-95.04c.06-.15.21-.25.37-.25h8.27c9.57,0,17.12-.16,22.66-.48.23-.01.42.17.42.4v2.54c0,.21-.17.39-.38.4-4.16.23-7.22.67-9.16,1.32Z"/><path class="cls-1" d="M525.46,324.96v2.54c0,.24-.19.42-.43.4-3.9-.31-9.05-.47-15.43-.47-8.21,0-14.39.16-18.54.47-.23.02-.42-.17-.42-.4v-2.53c0-.21.17-.39.38-.4,3.55-.23,6.12-.76,7.69-1.56,1.63-.84,2.45-2.36,2.45-4.59,0-1.89-.59-4.51-1.78-7.85l-8.95-27.11c-.05-.17-.21-.28-.38-.28h-35.28c-.17,0-.33.11-.38.27l-5.98,17.43c-1.98,6.01-2.96,10.58-2.96,13.69,0,3.45,1.06,5.96,3.19,7.51,2.06,1.51,5.16,2.34,9.31,2.49.22,0,.39.18.39.4v2.53c0,.23-.19.41-.42.4-5.49-.32-11.03-.48-16.62-.48-4.23,0-7.79.15-10.68.45-.24.02-.44-.16-.44-.4v-2.6c0-.18.12-.33.28-.38,4.8-1.44,8.61-6.26,11.42-14.45l34.73-100.93c.06-.16.21-.27.38-.27h1.8c.17,0,.33.11.38.27l36.06,104.77c2.31,6.71,5.59,10.27,9.86,10.66.21.02.37.19.37.39ZM488.98,279.31l-16.04-48.26c-.12-.37-.64-.37-.76,0l-16.33,48.26c-.09.26.11.53.38.53h32.37c.27,0,.47-.27.38-.53Z"/></svg>