<?xml version="1.0" encoding="UTF-8"?>
<svg id="Apple" xmlns="http://www.w3.org/2000/svg" version="1.1" viewBox="0 0 512 512">
  <!-- Generator: Adobe Illustrator 29.0.1, SVG Export Plug-In . SVG Version: 2.1.0 Build 192)  -->
  <defs>
    <style>
      .st0 {
        fill: none;
        stroke: #5a0606;
        stroke-linejoin: round;
        stroke-width: 5px;
      }
    </style>
  </defs>
  <path class="st0" d="M415.3,214.7v-68.1c-89.1-3.8-91.9-84.7-92-92.3v-.6h-68.8v265.4h0c0,30.1-24.4,54.5-54.5,54.5-30.1,0-54.5-24.4-54.5-54.5,0-30.1,24.4-54.5,54.5-54.5,5.4,0,10.7.8,15.8,2.4v-70.3c-67.6-8.8-129.6,38.9-138.4,106.6-8.8,67.6,38.9,129.6,106.6,138.4s129.6-38.9,138.4-106.6c.7-5.3,1-10.6,1-15.9,0-1.7,0-3.5-.1-5.2v-130.7c31.7,29,92,31.5,92,31.5Z"/>
</svg>